<svg xmlns="http://www.w3.org/2000/svg" xmlns:xlink="http://www.w3.org/1999/xlink" version="1.1" x="0px" y="0px" viewBox="0 0 100 100" style="enable-background:new 0 0 100 100;"><g><path d="M82,26h-4v-3c0-3.9-3.1-7-7-7s-7,3.1-7,7v3H37v-3c0-3.9-3.1-7-7-7s-7,3.1-7,7v3h-5c-3.9,0-7,3.1-7,7v50c0,3.9,3.1,7,7,7h64   c3.9,0,7-3.1,7-7V33C89,29.1,85.9,26,82,26z M68,23c0-1.7,1.3-3,3-3s3,1.3,3,3v8c0,1.7-1.3,3-3,3s-3-1.3-3-3V23z M27,23   c0-1.7,1.3-3,3-3s3,1.3,3,3v8c0,1.7-1.3,3-3,3s-3-1.3-3-3V23z M85,83c0,1.7-1.3,3-3,3H18c-1.7,0-3-1.3-3-3V33c0-1.7,1.3-3,3-3h5v1   c0,3.9,3.1,7,7,7s7-3.1,7-7v-1h27v1c0,3.9,3.1,7,7,7s7-3.1,7-7v-1h4c1.7,0,3,1.3,3,3V83z"/><path d="M31,42h-4c-3.9,0-7,3.1-7,7v4c0,3.9,3.1,7,7,7h4c3.9,0,7-3.1,7-7v-4C38,45.1,34.9,42,31,42z M34,53c0,1.7-1.3,3-3,3h-4   c-1.7,0-3-1.3-3-3v-4c0-1.7,1.3-3,3-3h4c1.7,0,3,1.3,3,3V53z"/><path d="M52,42h-4c-3.9,0-7,3.1-7,7v4c0,3.9,3.1,7,7,7h4c3.9,0,7-3.1,7-7v-4C59,45.1,55.9,42,52,42z M55,53c0,1.7-1.3,3-3,3h-4   c-1.7,0-3-1.3-3-3v-4c0-1.7,1.3-3,3-3h4c1.7,0,3,1.3,3,3V53z"/><path d="M73,42h-4c-3.9,0-7,3.1-7,7v4c0,3.9,3.1,7,7,7h4c3.9,0,7-3.1,7-7v-4C80,45.1,76.9,42,73,42z M76,53c0,1.7-1.3,3-3,3h-4   c-1.7,0-3-1.3-3-3v-4c0-1.7,1.3-3,3-3h4c1.7,0,3,1.3,3,3V53z"/><path d="M31,63h-4c-3.9,0-7,3.1-7,7v4c0,3.9,3.1,7,7,7h4c3.9,0,7-3.1,7-7v-4C38,66.1,34.9,63,31,63z M34,74c0,1.7-1.3,3-3,3h-4   c-1.7,0-3-1.3-3-3v-4c0-1.7,1.3-3,3-3h4c1.7,0,3,1.3,3,3V74z"/><path d="M52,63h-4c-3.9,0-7,3.1-7,7v4c0,3.9,3.1,7,7,7h4c3.9,0,7-3.1,7-7v-4C59,66.1,55.9,63,52,63z M55,74c0,1.7-1.3,3-3,3h-4   c-1.7,0-3-1.3-3-3v-4c0-1.7,1.3-3,3-3h4c1.7,0,3,1.3,3,3V74z"/><path d="M73,63h-4c-3.9,0-7,3.1-7,7v4c0,3.9,3.1,7,7,7h4c3.9,0,7-3.1,7-7v-4C80,66.1,76.9,63,73,63z M76,74c0,1.7-1.3,3-3,3h-4   c-1.7,0-3-1.3-3-3v-4c0-1.7,1.3-3,3-3h4c1.7,0,3,1.3,3,3V74z"/></g></svg>