<svg xmlns="http://www.w3.org/2000/svg" xmlns:xlink="http://www.w3.org/1999/xlink" version="1.1" x="0px" y="0px" viewBox="0 0 144.083 144" xml:space="preserve"><path d="M86.625,85.235c-1.657,0-3,1.343-3,3c0,2.361-1.922,4.283-4.285,4.283c-1.952,0-3.585-1.321-4.099-3.111  c1.104-0.443,1.884-1.519,1.884-2.78c0-1.657-1.343-3-3-3h-4.168c-1.657,0-3,1.343-3,3c0,1.262,0.78,2.336,1.883,2.78  c-0.514,1.79-2.147,3.111-4.1,3.111c-2.362,0-4.283-1.922-4.283-4.283c0-1.657-1.343-3-3-3s-3,1.343-3,3  c0,4.705,3.18,8.673,7.501,9.891v0.291c0,5.56,4.523,10.083,10.083,10.083c5.559,0,10.083-4.523,10.083-10.083v-0.292  c4.321-1.218,7.502-5.186,7.502-9.89C89.625,86.578,88.283,85.235,86.625,85.235z M72.041,102.5c-2.251,0-4.083-1.832-4.083-4.083  v-0.422c1.558-0.515,2.953-1.388,4.083-2.527c1.13,1.14,2.525,2.013,4.083,2.528v0.421C76.124,100.668,74.292,102.5,72.041,102.5z"/><circle cx="48.604" cy="70.627" r="5.75"/><circle cx="95.479" cy="70.627" r="5.75"/><path d="M122.868,81.892l-2-54.667c-0.039-1.061-0.636-2.022-1.569-2.528c-0.934-0.506-2.065-0.48-2.975,0.066L91.868,39.466H51.649  L27.785,24.779c-0.909-0.56-2.047-0.595-2.987-0.09c-0.941,0.503-1.544,1.469-1.583,2.535l-2,54.667  c-0.001,0.036-0.002,0.073-0.002,0.109c0,23.585,19.001,37.665,50.828,37.665c31.828,0,50.829-14.08,50.829-37.665  C122.87,81.965,122.869,81.928,122.868,81.892z M72.041,113.666c-13.47,0-44.79-3.08-44.828-31.611l1.81-49.469l20.205,12.435  c0.473,0.291,1.017,0.445,1.572,0.445h41.9c0.545,0,1.079-0.148,1.546-0.429l20.812-12.512l1.813,49.53  C116.832,110.586,85.511,113.666,72.041,113.666z"/></svg>