<svg xmlns:dc="http://purl.org/dc/elements/1.1/" xmlns:cc="http://creativecommons.org/ns#" xmlns:rdf="http://www.w3.org/1999/02/22-rdf-syntax-ns#" xmlns:svg="http://www.w3.org/2000/svg" xmlns="http://www.w3.org/2000/svg" xmlns:sodipodi="http://sodipodi.sourceforge.net/DTD/sodipodi-0.dtd" xmlns:inkscape="http://www.inkscape.org/namespaces/inkscape" version="1.1" x="0px" y="0px" viewBox="0 0 100 100"><g transform="translate(0,-952.36218)"><path style="text-indent:0;text-transform:none;direction:ltr;block-progression:tb;baseline-shift:baseline;color:#000000;enable-background:accumulate;" d="m 33.651875,979.51093 c -1.0752,0.97141 -1.9979,2.03188 -2.7875,3.1575 -0.117,0.0761 -0.226,0.16441 -0.3247,0.26313 L 10.084074,1003.07 c -0.0146,0.014 -0.029,0.029 -0.0431,0.044 -9.30309992,9.743 0.082,29.9714 17.755901,26.8393 0.0032,-6e-4 0.0065,0 0.0097,0 2.1774,-0.3969 3.8695,-1.5389 4.986,-3.035 1.8536,2.8055 4.4656,4.3699 7.2625,4.5213 3.4752,0.188 6.8855,-1.5056 9.7818,-4.1919 l 0.3191,0 c 2.8963,2.6863 6.3066,4.3799 9.7819,4.1919 2.7981,-0.1514 5.4111,-1.7172 7.265,-4.525 1.1174,1.498 2.812,2.6413 4.9925,3.0387 0.0031,6e-4 0.0062,0 0.0093,0 17.669696,3.1319 27.056596,-17.0993 17.756296,-26.8393 -0.0143,-0.015 -0.0289,-0.03 -0.0437,-0.044 L 69.452875,982.93125 c -0.0957,-0.0968 -0.2013,-0.18371 -0.3147,-0.25906 -0.7899,-1.12694 -1.7132,-2.18849 -2.7894,-3.16094 -7.8883,-7.88831 -22.7248,-8.74259 -32.6969,-3.1e-4 z m 30.0154,2.96781 c 2.8804,2.60283 4.4144,5.9838 5.1234,9.80969 1.2022,6.48741 -0.1569,14.08437 -1.4416,19.72717 -1.6951,-2.3849 -4.0685,-4.1489 -6.4609,-5.4925 -10e-4,-4e-4 -0.0015,-8e-4 -0.0022,-10e-4 -2.9703,-1.6733 -4.9324,-3.8648 -4.7013,-8.56846 0,-4e-4 0,-8e-4 0,-10e-4 0.1326,-2.7327 0.4969,-5.68524 0.1232,-8.36965 -0.1869,-1.3422 -0.5691,-2.67739 -1.47,-3.80812 -0.901,-1.13073 -2.3457,-1.89611 -3.9644,-2.07563 -0.0024,-2.1e-4 -0.0048,-4.2e-4 -0.0072,-6.2e-4 l -0.6522,-0.07 c -0.1407,-0.0151 -0.283,-0.0152 -0.4237,-3.1e-4 l -0.661,0.07 c -0.0033,3e-4 -0.0067,6.2e-4 -0.01,9.4e-4 -1.6187,0.17952 -3.0634,0.94502 -3.9643,2.07594 -0.9009,1.13092 -1.2826,2.46628 -1.4688,3.80875 -0.3722,2.68332 -0.0064,5.6344 0.1306,8.3669 0,0 0,0 0,0 0.2218,4.70116 -1.7412,6.89376 -4.7104,8.56646 -0.001,5e-4 -0.0014,9e-4 -0.0022,10e-4 -2.39,1.3423 -4.7607,3.1041 -6.4556,5.4854 -1.2867,-5.6413 -2.6438,-13.23486 -1.4412,-19.7197 0.7095,-3.82582 2.2441,-7.20706 5.1253,-9.81 7.9604,-5.87415 19.1382,-7.18989 27.3345,0 z m -13.6679,5.14907 0.4332,0.0463 0.0053,6.3e-4 c 0.001,10e-5 0.0012,2.4e-4 0.0018,3.1e-4 0.7811,0.0877 1.0154,0.27227 1.27,0.59187 0.2555,0.32066 0.5073,0.93813 0.6366,1.86719 0.2586,1.85785 -0.0159,4.72247 -0.1566,7.62313 0,4e-4 0,8e-4 0,10e-4 -0.297,6.05476 2.904,10.09156 6.736,12.24966 0.001,4e-4 0.0015,8e-4 0.0022,0 2.3266,1.3064 4.4301,3.0164 5.6059,5.0069 1.1757,1.9902 1.5949,4.2166 0.47,7.3696 0,3e-4 0,6e-4 0,10e-4 -1.3602,3.806 -3.1826,4.9436 -5.2816,5.0571 -2.0991,0.1136 -4.8766,-1.1408 -7.3459,-3.6115 -0.1851,-0.1852 -0.407,-0.3336 -0.6489,-0.4339 -0.2419,-0.1002 -0.5036,-0.1523 -0.7655,-0.1524 l -1.93,0 c -0.2619,0 -0.5237,0.052 -0.7657,0.1524 -0.2419,0.1003 -0.4639,0.2486 -0.649,0.4339 -2.4693,2.4708 -5.2464,3.7251 -7.3456,3.6115 -2.099,-0.1135 -3.9217,-1.2511 -5.2819,-5.0571 0,-4e-4 0,-7e-4 0,-10e-4 -1.1249,-3.153 -0.7057,-5.3794 0.47,-7.3696 1.1758,-1.9905 3.2793,-3.7005 5.606,-5.0069 10e-4,-4e-4 0.0017,-8e-4 0.0025,-0 3.8323,-2.1583 7.0323,-6.1934 6.7447,-12.24776 0,0 0,0 0,0 -0.1451,-2.89999 -0.4217,-5.76463 -0.164,-7.62222 0.1288,-0.92879 0.3803,-1.54578 0.6356,-1.86625 0.2541,-0.31899 0.4883,-0.50376 1.2669,-0.59156 l 0.004,-3.1e-4 0.445,-0.0472 z m -22.7671,4.17281 c -1.5608,8.81968 0.8271,18.33888 2.2031,23.99748 0.0085,0.034 0.0178,0.069 0.0281,0.1028 0.8192,2.7262 1.1619,5.3882 0.7997,7.1244 -0.3616,1.7337 -0.9435,2.5827 -3.1644,2.9897 0,10e-5 -0.001,2e-4 -0.0012,3e-4 -14.586001,2.5839 -20.5258009,-13.4425 -14.178201,-20.1238 z m 45.5346,0.003 14.315696,14.08748 c 6.3425,6.6762 0.402,22.7059 -14.176896,20.1241 -0.001,-2e-4 -0.0019,-5e-4 -0.0028,-7e-4 -2.224,-0.4076 -2.8074,-1.2575 -3.1691,-2.99 -0.3622,-1.735 -0.0184,-4.3957 0.8041,-7.1218 0.0105,-0.035 0.0201,-0.071 0.0287,-0.1066 1.3711,-5.6563 3.7587,-15.1738 2.2003,-23.99248 z" fill-rule="evenodd" marker="none" visibility="visible" display="inline" overflow="visible"/><path style="text-indent:0;text-transform:none;direction:ltr;block-progression:tb;baseline-shift:baseline;color:#000000;enable-background:accumulate;" d="m 37.371575,992.43499 c -2.0179,0 -3.7184,1.6788 -3.7184,3.70565 0,2.0268 1.7005,3.7056 3.7184,3.7056 2.0179,0 3.7272,-1.6664 3.7272,-3.7056 0,-2.03926 -1.7093,-3.70565 -3.7272,-3.70565 z"/><path style="text-indent:0;text-transform:none;direction:ltr;block-progression:tb;baseline-shift:baseline;color:#000000;enable-background:accumulate;" d="m 62.621275,992.43499 c -2.0179,0 -3.7184,1.6788 -3.7184,3.70565 0,2.0268 1.7005,3.7056 3.7184,3.7056 2.0179,0 3.7184,-1.6788 3.7184,-3.7056 0,-2.02685 -1.7005,-3.70565 -3.7184,-3.70565 z" fill-rule="evenodd"/><path style="text-indent:0;text-transform:none;direction:ltr;block-progression:tb;baseline-shift:baseline;color:#000000;enable-background:accumulate;" d="m 50.000375,1006.9665 c -2.7347,0 -5.0038,2.2554 -5.0038,4.9963 0,2.7409 2.2629,5.0037 5.0038,5.0037 2.7408,0 4.9962,-2.269 4.9962,-5.0037 0,-2.7347 -2.2616,-4.9963 -4.9962,-4.9963 z m 0,3.9997 c 0.5789,0 0.9965,0.4175 0.9965,0.9966 0,0.579 -0.4238,1.0043 -0.9965,1.0043 -0.5729,0 -1.0044,-0.4315 -1.0044,-1.0043 0,-0.5729 0.4252,-0.9966 1.0044,-0.9966 z" fill-rule="evenodd"/></g></svg>