<svg xmlns="http://www.w3.org/2000/svg" xmlns:xlink="http://www.w3.org/1999/xlink" version="1.1" x="0px" y="0px" viewBox="0 0 100 125" enable-background="new 0 0 100 100" xml:space="preserve"><path fill-rule="evenodd" clip-rule="evenodd" d="M77.138,55.026c-1.167,4.447-5.857,14.323-5.857,14.323l-14.946-3.735  c0,0,1.371-8.037,0.421-11.137c-0.999-3.26-2.221-8.472-2.219-13.444c0.003-6.899,1.308-9.578,4.557-14.812  c1.599-2.577,5.573-4.368,9.171-4.184c2.196,0.112,4.394,0.883,6.206,2.536c2.516,2.293,3.841,5.906,4.365,10.174  C79.861,43.102,79.549,45.838,77.138,55.026z M50.86,80.912c-0.903,2.754-1.432,5.352-0.952,8.368  c0.292,1.835,1.525,3.358,3.977,4.467c2.715,1.226,5.205,1.172,5.682,1.191c2.335-0.359,4.035-1.42,5.321-2.951  c2.731-3.249,4.52-14.829,4.52-14.829l-15.605-4.153C53.803,73.005,51.689,78.383,50.86,80.912z M21.544,36.832  c0.647,4.552,4.168,14.902,4.168,14.902l15.276-1.988c0,0-0.435-8.142,0.865-11.111c1.368-3.123,3.182-8.159,3.753-13.099  c0.791-6.854-0.195-9.665-2.819-15.24c-1.292-2.743-5.034-4.98-8.628-5.212c-2.194-0.143-4.466,0.371-6.458,1.803  c-2.764,1.988-4.495,5.424-5.508,9.603C20.212,24.674,20.207,27.428,21.544,36.832z M42.651,57.38l-15.979,2.327  c0,0,0.441,11.709,2.78,15.252c1.101,1.668,2.667,2.918,4.947,3.544c0.476,0.036,2.943,0.377,5.78-0.528  c2.563-0.818,3.965-2.188,4.466-3.978c0.824-2.941,0.598-5.583,0.018-8.423C44.131,62.966,42.651,57.38,42.651,57.38z"/></svg>