<svg xmlns:dc="http://purl.org/dc/elements/1.1/" xmlns:cc="http://creativecommons.org/ns#" xmlns:rdf="http://www.w3.org/1999/02/22-rdf-syntax-ns#" xmlns:svg="http://www.w3.org/2000/svg" xmlns="http://www.w3.org/2000/svg" xmlns:sodipodi="http://sodipodi.sourceforge.net/DTD/sodipodi-0.dtd" xmlns:inkscape="http://www.inkscape.org/namespaces/inkscape" version="1.1" x="0px" y="0px" viewBox="0 0 100 100"><g transform="translate(0,-952.36218)"><path style="text-indent:0;text-transform:none;direction:ltr;block-progression:tb;baseline-shift:baseline;color:#000000;enable-background:accumulate;" d="m 49.999888,958.36218 c -3.8346,0 -7,3.16691 -7,7 l 0,0.28125 c -0.9143,-0.43886 -1.9264,-0.6875 -3,-0.6875 -2.232,0 -4.2797,1.05193 -5.5624,2.71875 -0.9096,1.17626 -1.4376,2.66257 -1.4376,4.25 l 0,7.9375 c -0.9133,-0.44043 -1.925,-0.6875 -3,-0.6875 -3.8395,0 -7,3.13079 -7,6.96875 0,13.20466 0,26.34037 0,39.53127 0,11.3751 9.3522,20.6875 20.75,20.6875 l 12.5,0 c 11.4068,0 20.75,-9.3137 20.75,-20.6875 5.02e-4,-10.1727 0,-20.3267 0,-30.50001 0,-3.8331 -3.1591,-7.00001 -7,-7.00001 -1.0662,0 -2.0915,0.25376 -3,0.6875 l 0,-15.3125 c 0,-3.83309 -3.1592,-7 -7,-7 -1.0663,0 -2.0915,0.25376 -3,0.6875 l 0,-1.875 c 0,-3.83796 -3.1654,-7 -7,-7 z m 0,4 c 1.6608,0 3,1.35796 3,3 l 0,8.1875 c 0,0.0625 0,0.12505 0,0.1875 l 0,34.93752 c -0.015,1.0566 0.9433,2.0285 2,2.0285 1.0567,0 2.0149,-0.9719 2,-2.0285 l 0,-35.00002 c 0,-0.0417 0,-0.0833 0,-0.125 0,-1.64691 1.3394,-3 3,-3 1.6748,0 3,1.35309 3,3 l 0,24.90621 c 0,0.073 0,0.1459 0,0.2188 l 0,10.00001 c -0.015,1.0566 0.9433,2.0285 2,2.0285 1.0567,0 2.0149,-0.9719 2,-2.0285 l 0,-10.06251 c 0,-0.052 0,-0.1042 0,-0.1563 l 0,-3.2812 c 0,-1.6469 1.3393,-3.00001 3,-3.00001 1.6748,0 3,1.35311 3,3.00001 0,10.19341 0,20.30631 0,30.50001 0,9.1861 -7.5191,16.6875 -16.75,16.6875 l -12.5,0 c -9.2198,0 -16.75,-7.5027 -16.75,-16.6875 5e-4,-13.1798 0,-26.34781 0,-39.53127 0,-1.64204 1.3443,-2.96875 3,-2.96875 1.6559,0 3,1.32184 3,2.96875 l 0,22.53127 c 0,2.7753 4,2.5527 4,0 l 0,-22.53127 0,-14.21875 c 0,-0.66853 0.2354,-1.31019 0.625,-1.8125 0.543,-0.70788 1.402,-1.15625 2.375,-1.15625 1.6608,0 3,1.3267 3,2.96875 0,0.0625 0,0.12505 0,0.1875 l 0,36.56252 c -0.015,1.0566 0.9433,2.0285 2,2.0285 1.0567,0 2.0149,-0.9719 2,-2.0285 l 0,-36.59377 c 0,-0.0521 0,-0.10419 0,-0.15625 l 0,-6.5625 c 0,-1.64691 1.3392,-3 3,-3 z" /></g></svg>