<svg xmlns="http://www.w3.org/2000/svg" xmlns:xlink="http://www.w3.org/1999/xlink" viewBox="0 0 64 64" version="1.1" x="0px" y="0px"><title>stopwatch</title><desc>Created with Sketch.</desc><g stroke="none" stroke-width="1" fill-rule="evenodd"><g fill-rule="nonzero"><path d="M34,36.2024072 L38.0995056,39.6423009 C38.9456549,40.3523045 39.0560229,41.6138157 38.3460193,42.459965 C37.6360157,43.3061143 36.3745045,43.4164822 35.5283552,42.7064786 L30.9320885,38.849753 C30.7368688,38.6859442 30.5808145,38.4927789 30.4649643,38.2821311 C30.1747028,37.9349874 30,37.4878957 30,37 L30,23 C30,21.8954305 30.8954305,21 32,21 C33.1045695,21 34,21.8954305 34,23 L34,36.2024072 Z M32,63 C16.536027,63 4,50.463973 4,35 C4,19.536027 16.536027,7 32,7 C47.463973,7 60,19.536027 60,35 C60,50.463973 47.463973,63 32,63 Z M32,59 C45.254834,59 56,48.254834 56,35 C56,21.745166 45.254834,11 32,11 C18.745166,11 8,21.745166 8,35 C8,48.254834 18.745166,59 32,59 Z M9.78201305,6.65294056 L20.4740913,1.20505457 C21.45827,0.703590509 22.6626213,1.09490799 23.1640854,2.07908662 C23.6655494,3.06326525 23.274232,4.26761661 22.2900533,4.76908066 L11.597975,10.2169667 C10.6137964,10.7184307 9.40944506,10.3271132 8.907981,9.34293461 C8.40651694,8.35875598 8.79783442,7.15440462 9.78201305,6.65294056 Z M54.2898767,6.65294056 C55.2740553,7.15440462 55.6653728,8.35875598 55.1639087,9.34293461 C54.6624446,10.3271132 53.4580933,10.7184307 52.4739147,10.2169667 L41.7818364,4.76908066 C40.7976577,4.26761661 40.4063403,3.06326525 40.9078043,2.07908662 C41.4092684,1.09490799 42.6136197,0.703590509 43.5977984,1.20505457 L54.2898767,6.65294056 Z"/></g></g></svg>