<svg xmlns="http://www.w3.org/2000/svg" xmlns:xlink="http://www.w3.org/1999/xlink" viewBox="0 0 100 100" version="1.1" x="0px" y="0px"><title>Gear 2.4</title><desc>Created with Sketch.</desc><g stroke-width="1" fill-rule="evenodd"><g ><path d="M46.3081416,73.7650167 C45.7714238,75.3300215 44.0494431,76.1808835 42.4914287,75.6750282 L40.9830778,75.1852975 C39.4118833,74.6751629 38.5310525,72.9822255 39.0175609,71.3979147 L39.1950893,70.8197945 C39.6000916,69.5009077 39.0286441,67.7770567 37.9097198,66.9629127 L37.6046122,66.7409124 C36.48972,65.9297023 34.6707593,65.9145722 33.5420802,66.7069566 L33.0472903,67.0543218 C31.6936802,68.0046181 29.800288,67.6809298 28.8364912,66.3563711 L27.9034166,65.0740342 C26.9314666,63.7382703 27.2251708,61.8424446 28.5375476,60.8560314 L29.0208454,60.4927734 C30.1234103,59.6640596 30.6734797,57.9335996 30.2460193,56.6170867 L30.1294596,56.2581007 C29.7035395,54.9463318 28.2403118,53.8647973 26.8615306,53.8424304 L26.257101,53.8326252 C24.6035467,53.8058008 23.2630761,52.4310288 23.2630761,50.7929376 L23.2630761,49.2070624 C23.2630761,47.5551137 24.6157956,46.1940005 26.257101,46.1673748 L26.8615306,46.1575696 C28.2404378,46.1352006 29.7019991,45.0584123 30.1294596,43.7418993 L30.2460193,43.3829133 C30.6719394,42.0711445 30.1233096,40.3358647 29.0208454,39.5072266 L28.5375476,39.1439686 C27.2153767,38.1501939 26.9396199,36.2505245 27.9034166,34.9259658 L28.8364912,33.6436289 C29.8084412,32.307865 31.7037072,32.0024213 33.0472903,32.9456782 L33.5420802,33.2930434 C34.6708624,34.0855003 36.4856879,34.0732315 37.6046122,33.2590876 L37.9097198,33.0370873 C39.024612,32.2258771 39.6000545,30.4989718 39.1950893,29.1802055 L39.0175609,28.6020853 C38.5318914,27.0205062 39.4250633,25.3205578 40.9830778,24.8147025 L42.4914287,24.3249718 C44.0626232,23.8148372 45.7704968,24.6672754 46.3081416,26.2349833 L46.50433,26.8070451 C46.9519017,28.1121105 48.4275095,29.1700751 49.8113303,29.1700751 L50.1886697,29.1700751 C51.5675038,29.1700751 53.0481392,28.1119912 53.49567,26.8070451 L53.6918584,26.2349833 C54.2285762,24.6699785 55.9505569,23.8191165 57.5085713,24.3249718 L59.0169222,24.8147025 C60.5881167,25.3248371 61.4689475,27.0177745 60.9824391,28.6020853 L60.8049107,29.1802055 C60.3999084,30.4990923 60.9713559,32.2229433 62.0902802,33.0370873 L62.3953878,33.2590876 C63.51028,34.0702977 65.3292407,34.0854278 66.4579198,33.2930434 L66.9527097,32.9456782 C68.3063198,31.9953819 70.199712,32.3190702 71.1635088,33.6436289 L72.0965834,34.9259658 C73.0685334,36.2617297 72.7748292,38.1575554 71.4624524,39.1439686 L70.9791546,39.5072266 C69.8765897,40.3359404 69.3265203,42.0664004 69.7539807,43.3829133 L69.8705404,43.7418993 C70.2964605,45.0536682 71.7596882,46.1352027 73.1384694,46.1575696 L73.742899,46.1673748 C75.3964533,46.1941992 76.7369239,47.5689712 76.7369239,49.2070624 L76.7369239,50.7929376 C76.7369239,52.4448863 75.3842044,53.8059995 73.742899,53.8326252 L73.1384694,53.8424304 C71.7595622,53.8647994 70.2980009,54.9415877 69.8705404,56.2581007 L69.7539807,56.6170867 C69.3280606,57.9288555 69.8766904,59.6641353 70.9791546,60.4927734 L71.4624524,60.8560314 C72.7846233,61.8498061 73.0603801,63.7494755 72.0965834,65.0740342 L71.1635088,66.3563711 C70.1915588,67.692135 68.2962928,67.9975787 66.9527097,67.0543218 L66.4579198,66.7069566 C65.3291376,65.9144997 63.5143121,65.9267685 62.3953878,66.7409124 L62.0902802,66.9629127 C60.975388,67.7741229 60.3999455,69.5010282 60.8049107,70.8197945 L60.9824391,71.3979147 C61.4681086,72.9794938 60.5749367,74.6794422 59.0169222,75.1852975 L57.5085713,75.6750282 C55.9373768,76.1851628 54.2295032,75.3327246 53.6918584,73.7650167 L53.49567,73.1929549 C53.0480983,71.8878895 51.5724905,70.8299249 50.1886697,70.8299249 L49.8113303,70.8299249 C48.4324962,70.8299249 46.9518608,71.8880088 46.50433,73.1929549 L46.3081416,73.7650167 Z M50,63 C57.1797017,63 63,57.1797017 63,50 C63,42.8202983 57.1797017,37 50,37 C42.8202983,37 37,42.8202983 37,50 C37,57.1797017 42.8202983,63 50,63 Z"/></g></g></svg>