<svg xmlns="http://www.w3.org/2000/svg" viewBox="0 0 37 60" x="0px" y="0px"><title>Asset 32</title><g data-name="Layer 2"><g><path d="M31.11,7H30V4.5a1,1,0,0,0-1-1H21.71V1a1,1,0,0,0-1-1H16.3a1,1,0,0,0-1,1V3.5H8a1,1,0,0,0-1,1V7H5.9A5.91,5.91,0,0,0,0,12.9V45.1A5.91,5.91,0,0,0,5.9,51H31.11A5.91,5.91,0,0,0,37,45.1V12.9A5.91,5.91,0,0,0,31.11,7ZM16.3,5.5a1,1,0,0,0,1-1V2h2.41V4.5a1,1,0,0,0,1,1H28v5H9v-5ZM35,45.1a3.9,3.9,0,0,1-3.9,3.9H5.9A3.9,3.9,0,0,1,2,45.1V12.9A3.9,3.9,0,0,1,5.9,9H7v2.5a1,1,0,0,0,1,1H29a1,1,0,0,0,1-1V9h1.1A3.9,3.9,0,0,1,35,12.9Z"/><path d="M28.51,21.22,14.93,34.8,8.5,28.36a1,1,0,1,0-1.41,1.41l7.14,7.14a1,1,0,0,0,1.41,0L29.92,22.64a1,1,0,0,0-1.41-1.41Z"/></g></g></svg>