<svg xmlns="http://www.w3.org/2000/svg" xmlns:xlink="http://www.w3.org/1999/xlink" version="1.1" x="0px" y="0px" viewBox="0 0 100 125" enable-background="new 0 0 100 100" xml:space="preserve"><g><path d="M64.856,97c-7.594,0-8.027-9.289-8.443-18.27c-0.459-9.928-1.194-16.984-6.518-17.322   c-5.108,0.338-5.851,7.395-6.31,17.322C43.17,87.711,42.736,97,35.144,97c-13.067,0-14.149-34.117-14.225-41.57   c-2.19-1.131-7.38-4.396-10.211-11.056c-2.982-6.999-2.46-15.518,1.541-25.322C17.785,5.479,27.04,2.629,33.835,2.629   c7.064,0,13.463,2.995,16.167,4.454c2.699-1.459,9.099-4.454,16.163-4.454c6.788,0,16.049,2.85,21.586,16.419   c4,9.808,4.522,18.327,1.54,25.322c-2.838,6.663-8.021,9.928-10.21,11.059C78.999,62.883,77.923,97,64.856,97z M49.896,58.191   c8.814,0.551,9.305,11.09,9.732,20.389c0.428,9.182,1.025,15.199,5.229,15.199c8.016,0,11.003-24.148,11.01-39.371v-1.084   l1.006-0.41c0.07-0.025,6.449-2.68,9.481-9.858c2.599-6.168,2.07-13.834-1.586-22.79C80.867,10.7,74.607,5.85,66.165,5.85   c-7.109,0-13.551,3.423-15.357,4.473l-0.806,0.469l-0.812-0.469c-1.805-1.05-8.247-4.473-15.355-4.473   c-8.444,0-14.703,4.851-18.604,14.417c-3.668,8.984-4.19,16.668-1.561,22.847c3.058,7.19,9.38,9.774,9.442,9.799l1.021,0.404v1.092   c0,15.223,2.994,39.371,11.01,39.371c4.202,0,4.799-6.018,5.228-15.197C40.799,69.285,41.29,58.742,49.896,58.191z"/></g><g><path d="M70.386,48.303l-1.377-2.913c0.497-0.236,12.161-5.983,6.203-19.082c-1.698-3.743-3.845-6.272-6.379-7.512l1.414-2.894   c3.222,1.58,5.877,4.631,7.896,9.072C85.429,40.999,70.537,48.234,70.386,48.303z"/></g></svg>