<svg xmlns="http://www.w3.org/2000/svg" xmlns:xlink="http://www.w3.org/1999/xlink" version="1.1" x="0px" y="0px" viewBox="0 0 100 100" style="enable-background:new 0 0 100 100;" xml:space="preserve"><g><path d="M24.8,37v36.1c0,8.8,7.2,16,16,16h18.4c8.8,0,16-7.2,16-16V37c3.4-1.3,5.8-4.6,5.8-8.5c0-5-4.1-9.1-9.1-9.1h-8.4   c-0.5-4.9-4.7-8.7-9.7-8.7h-7.7c-5,0-9.1,3.8-9.7,8.7h-8.4c-5,0-9.1,4.1-9.1,9.1C19,32.4,21.4,35.7,24.8,37z M59.2,85.2H40.8   c-6.6,0-12-5.4-12-12V37.7h42.4v35.5C71.2,79.8,65.8,85.2,59.2,85.2z M46.1,14.8h7.7c2.8,0,5.1,2,5.6,4.7h-19   C41,16.8,43.3,14.8,46.1,14.8z M28.1,23.5h43.8c2.8,0,5.1,2.3,5.1,5.1c0,2.8-2.3,5.1-5.1,5.1H28.1c-2.8,0-5.1-2.3-5.1-5.1   C23,25.8,25.3,23.5,28.1,23.5z"/><rect x="58.3" y="46.3" width="4" height="29.2"/><rect x="48" y="46.3" width="4" height="29.2"/><rect x="37.7" y="46.3" width="4" height="29.2"/></g></svg>